<?xml version="1.0" encoding="UTF-8" standalone="no"?>

<svg
   fill="#000000"
   height="800"
   width="800"
   version="1.1"
   id="Capa_1"
   viewBox="0 0 338.605 338.605"
   xml:space="preserve"
   xmlns="http://www.w3.org/2000/svg"
   xmlns:svg="http://www.w3.org/2000/svg"><defs
   id="defs8" />
<path
   id="path3"
   d="M 169.30799,4.6800303 12.279431,61.727078 l 0.103262,0.03292 V 125.13144 L 169.30812,177.94756 326.23137,125.13144 V 61.757792 l 0.0942,-0.03079 z m 0.002,15.3721527 L 282.56377,61.200387 169.31019,99.293904 56.047821,61.200387 Z M 12.389144,163.67265 V 281.10666 L 169.31239,333.92497 326.23782,281.10666 V 163.67265 l -5.20087,1.74898 c 1.32197,32.1786 -11.34192,62.4845 -29.17528,68.79174 -18.04572,6.37892 -34.7322,-14.17136 -38.00793,-46.18008 l -0.38621,0.12954 c 1.59274,32.50247 -11.14407,63.29119 -29.1314,69.65418 -18.21296,6.43466 -35.02266,-14.53923 -38.09134,-47.03377 l -16.9346,5.6968 -16.92802,-5.6968 C 149.3135,243.27778 132.4949,264.24729 114.29521,257.8126 96.283996,251.44964 83.543392,220.65652 85.144094,188.15404 L 84.757855,188.0245 C 81.482123,220.03854 64.793918,240.59011 46.74554,234.2112 28.925455,227.90661 16.263187,197.60025 17.587814,165.42163 Z m 9.6139,3.23679 c 4.672032,18.1944 13.962792,32.38841 25.449088,36.44989 11.719898,4.13846 22.812708,-3.26896 29.945521,-17.80801 z m 294.609886,0.005 -55.39678,18.6397 c 7.1275,14.53639 18.23634,21.94427 29.93235,17.80581 11.48895,-4.06148 20.78178,-18.25113 25.46443,-36.44551 z M 89.289407,189.55278 c 4.600359,18.65625 14.016893,33.28146 25.710243,37.40665 11.89776,4.20749 23.18148,-3.53319 30.30102,-18.56068 z m 160.032783,0.002 -56.00906,18.84817 c 7.1275,15.02483 18.39833,22.76379 30.31201,18.5563 11.68539,-4.12784 21.09934,-18.7482 25.69705,-37.40447 z"
   style="stroke-width:2.65456" />
</svg>
