<?xml version="1.0" encoding="UTF-8"?>
<svg version="1.1" viewBox="0 0 16 16" xml:space="preserve" xmlns="http://www.w3.org/2000/svg">
<path d="m8.1749 0.12769c-0.85372 0.096619-1.5171 0.82054-1.5171 1.7001 0 0.9448 0.76591 1.7108 1.7111 1.7108 0.87918 0 1.6035-0.66344 1.6997-1.5168-0.24672 0.29281-0.61589 0.47941-1.0289 0.47941-0.74234 0-1.3442-0.60189-1.3442-1.3446 0-0.41268 0.18623-0.78219 0.47941-1.0289zm5.5245 0.7895c-0.29989 0.033922-0.53298 0.28823-0.53298 0.59719 0 0.3319 0.26907 0.60097 0.60109 0.60097 0.30887 0 0.56324-0.23301 0.59707-0.5328-0.08669 0.1029-0.21636 0.16841-0.36145 0.16841-0.26077 0-0.4722-0.21136-0.4722-0.47232 0-0.14499 0.06549-0.27479 0.16847-0.36145zm-11.536 6.294e-5c-0.29989 0.033922-0.53292 0.28823-0.53292 0.59719 0 0.3319 0.26907 0.60097 0.60109 0.60097 0.30884 0 0.56324-0.23307 0.59707-0.53286-0.086689 0.10289-0.21643 0.16841-0.36151 0.16841-0.26077 0-0.47217-0.21137-0.47214-0.47226 0-0.14499 0.065426-0.27479 0.16841-0.36145zm0.068172 1.1982s-7.47e-5 2.069e-4 -1.81e-4 5.743e-4c-6.32e-5 -7.69e-5 -8.62e-5 -1.661e-4 -1.206e-4 -2.381e-4 -1.15e-5 -3.19e-5 -5.17e-5 -1.546e-4 -6.32e-5 -1.808e-4v-6.3e-5l-6.03e-5 -6.06e-5c0 8.02e-5 1.43e-5 9.03e-4 -2.384e-4 0.00229-5e-3 0.017492-0.039667 0.12857-0.15334 0.28775-4.6e-5 6.63e-5 -7.47e-5 1.153e-4 -1.206e-4 1.841e-4 -0.056822 0.079552-0.13335 0.1711-0.2358 0.26901-8.9e-5 8.58e-5 -1.493e-4 1.545e-4 -2.412e-4 2.413e-4 -0.10248 0.097917-0.23087 0.20211-0.3913 0.30704-0.23344 0.15286-0.32523 0.37637-0.31328 0.59785-0.12117 0.029397-0.21111 0.13863-0.21111 0.26883 0 0.15274 0.12384 0.27652 0.27658 0.27652h0.087752v11.747h13.42v-11.747h0.08757c0.15277 0 0.27661-0.12378 0.27658-0.27652 0-0.13026-0.09005-0.2395-0.2113-0.26884 0.01194-0.22147-0.07985-0.445-0.31328-0.59785-0.67118-0.43922-0.78104-0.86662-0.78104-0.86662s-0.10991 0.4274-0.78146 0.86662c-0.23318 0.15286-0.32488 0.37637-0.31304 0.59785-0.12119 0.029381-0.21117 0.13862-0.21117 0.26884 0 0.15274 0.12378 0.27652 0.27652 0.27652h0.08763v6.0845h-1.5514v-1.1639h-0.0055c0.40934-0.93155 0.26068-2.0673-0.78774-2.7536-2.1334-1.3962-2.4822-2.7537-2.4822-2.7537s-0.00654 0.024472-0.021428 0.067213c-0.00548 0.015824-0.018842 0.04617-0.026975 0.067263-0.012985 0.033742-0.023384 0.063041-0.044026 0.10919-0.015971 0.035689-0.043347 0.085382-0.064563 0.12787-0.023523 0.047094-0.041729 0.088088-0.072434 0.14283-0.029427 0.052446-0.07335 0.11687-0.11009 0.17568-0.036326 0.058148-0.06558 0.11068-0.10973 0.17442-0.04637 0.066935-0.11024 0.14364-0.16601 0.21604-0.050983 0.066191-0.093097 0.12772-0.15256 0.1979-0.07175 0.084687-0.16474 0.17693-0.24979 0.26655-0.062551 0.065912-0.11403 0.12815-0.18427 0.19628-0.10533 0.10216-0.23557 0.20955-0.35935 0.31562-0.071113 0.060938-0.12922 0.11949-0.20679 0.18139-0.21249 0.16953-0.44963 0.34219-0.71431 0.51544-0.91737 0.60051-1.1461 1.5452-0.91449 2.396 0.033086 0.12155 0.075579 0.24116 0.12679 0.35761h-0.0059532v1.1639h-1.5514v-6.0845h0.087809c0.15274 0 0.27652-0.12378 0.27652-0.27652 0-0.1302-0.089949-0.23944-0.21111-0.26884 0.011949-0.22148-0.079835-0.44499-0.31328-0.59785-0.67118-0.43922-0.78104-0.86662-0.78104-0.86662z" stroke-width=".030752"/>












</svg>
